#!OML:ASF F:\VICON\USERDATA\INSTALL\rory3\rory3.ASF
:FULLY-SPECIFIED
:DEGREES
37
root 0.006627462634926612 18.373768788406558 8.240097534232234 4.827485048190068 -3.9251219669876174 0.9530527948084639
lfemur 16.68365208937042 -5.441857479031168 -28.448324689040735
ltibia 42.05810391194848
lfoot 22.7292417522496 -16.01013988368336
ltoes -9.511527285507295
rfemur -44.39752420171915 -0.010296666725764125 25.35368759347441
rtibia 27.641831353874352
rfoot 4.064732941510794 -0.5597802458787262
rtoes -13.593534598229247
lowerback 14.288920290870148 -1.7831867872312497 -3.119829721153052
upperback -1.47177348178912 -2.805912804624807 1.8685911046969543
thorax -9.372921386786896 -1.075748494789592 4.91145053815694
lowerneck -20.713553773817008 -2.240244028972997 -2.4413007342987996
upperneck 13.835127185211038 -2.7769345129586887 2.267534274994707
head 7.679873697568102 -1.2043450501865496 0.766173237973585
lclavicle -3.0575023660853705e-15 8.206578819221083e-16
lhumerus -35.256993779772195 -21.765790648512798 94.40927411838601
lradius 115.03783739886788
lwrist 33.72646914482237
lhand -24.646001358143486 -0.3995304663601573
lfingers 7.12502
lthumb 1.853495897896599 29.5660537784439
rclavicle -3.0575023660853705e-15 8.206578819221083e-16
rhumerus -67.62474406880808 -0.9785161640786981 -93.6233921684978
rradius 111.0489289496935
rwrist -8.098934443280054
rhand -16.21989883627456 40.494989666267315
rfingers 7.12502
rthumb 9.987202943786974 10.484279160738428
38
root 0.03002916286301502 18.254276596125347 9.652451094296811 4.329521707558581 -3.9875069877895952 1.1220410918063548
lfemur 17.036492121942693 -4.361135836870762 -27.41419703788373
ltibia 49.293526277915106
lfoot 22.408860420685233 -14.938851498022311
ltoes -6.9922996266544555
rfemur -42.94106616613756 0.1616288909163106 26.13990301536543
rtibia 32.48694619163379
rfoot 4.2067508661337225 0.6404436398378222
rtoes -6.421636288611845
lowerback 14.743653728743292 -1.5579795192088133 -2.805592428270643
upperback -1.1927002216510343 -2.467626177261181 1.9733454328722986
thorax -9.381398356128862 -0.9322374884701768 5.011384616917119
lowerneck -20.337619328679235 -2.156712122369149 -2.4575328609326146
upperneck 13.796478574985912 -2.6190309346119283 2.226504555724636
head 7.630569029764008 -1.151942071435279 0.7625069400788187
lclavicle -1.4368992909724788e-15 1.9949348967109397e-15
lhumerus -34.56293136544194 -20.90013308904945 94.90915814429309
lradius 112.46331843206872
lwrist 34.23582470712684
lhand -25.1797778592994 -0.633747279970337
lfingers 7.12502
lthumb 1.3380117901341628 29.325610767807483
rclavicle -1.4368992909724788e-15 1.9949348967109397e-15
rhumerus -66.53133608671148 -0.8473242338630769 -93.63626841886307
rradius 110.94962131791864
rwrist -7.90711733673608
rhand -16.243659847830283 40.650872430033246
rfingers 7.12502
rthumb 9.964292637703075 10.594797878910622
39
root 0.0068588082817200025 18.076573328358897 5.98014647358368 3.897585783011005 -4.582085628173222 0.7969665785279556
lfemur 13.01317940130773 -3.3232479371999886 -26.419748417770258
ltibia 55.134700312966615
lfoot 19.449465337671896 -14.574425940331384
ltoes -6.629724850142245
rfemur -42.57828616432774 -0.18784776798546954 26.555357763272117
rtibia 35.117140456078275
rfoot 2.296385939057596 0.13765663742029233
rtoes -3.564349636070251
lowerback 15.179126496616744 -1.3249824370325225 -2.707829076923672
upperback -0.8775468980602135 -2.132214112151252 1.904208553097429
thorax -9.455878170832248 -0.7842839743636217 4.586341507207957
lowerneck -20.555680636775843 -2.3067451010912166 -2.4028820353211437
upperneck 13.525095425765532 -2.8346293355259107 2.1262600914858187
head 7.57177587585038 -1.2552810721847185 0.6902724618289696
lclavicle -2.5813866121716108e-15 1.1662242423736646e-15
lhumerus -36.59679313621925 -21.071230833486222 95.61903401258135
lradius 109.56212897525293
lwrist 33.30517235618413
lhand -25.312166734468374 -0.5493314060169838
lfingers 7.12502
lthumb 1.2101198589255635 29.42105360867252
rclavicle -2.5813866121716108e-15 1.1662242423736646e-15
rhumerus -64.8175935263837 -0.8006179240220028 -94.05636818026224
rradius 109.24425081872684
rwrist -7.349060138891031
rhand -16.63948834442579 40.564024227315166
rfingers 7.12502
rthumb 9.582259831967571 10.513974245488015
40
root -0.015031527715090726 17.823722486013715 7.711587107590718 3.3260696736552036 -4.531071621535457 0.23590196571651
lfemur 9.16220901737938 -1.224293895496364 -23.89070884770843
ltibia 65.4230698320322
lfoot 17.17426224014568 -12.812696165197064
ltoes -3.735901085186298
rfemur -39.75469897857269 0.43049023903356054 27.967920599990663
rtibia 42.70097675148705
rfoot -0.00360895651409443 -0.021319905090865454
rtoes 4.808586920014019
lowerback 15.842861640981422 -0.9253365132612854 -1.8846370674497754
upperback -0.5922429982681575 -1.4372875440520274 2.1527731239997054
thorax -9.598939682341742 -0.49636005855179877 4.310779159261549
lowerneck -20.386840603197417 -2.33182278744726 -2.2911282248170544
upperneck 13.39547883143702 -2.8350252035183505 1.9750980537185283
head 7.514753805887392 -1.2803988910406154 0.6116511343461761
lclavicle -1.5359845448716929e-15 1.9229523351390846e-15
lhumerus -37.59149128268783 -19.406760858150847 96.48548058099047
lradius 105.50267932994872
lwrist 34.07378256538469
lhand -25.889994393203754 -0.808968314644267
lfingers 7.12502
lthumb 0.6521144063925154 29.15258810819348
rclavicle -1.5359845448716929e-15 1.9229523351390846e-15
rhumerus -62.09530871543551 0.40258864460177257 -94.350107825529
rradius 108.70624736311461
rwrist -7.611413683832939
rhand -16.857375722220787 40.524246352932714
rfingers 7.12502
rthumb 9.371974377609682 10.383513599602963
41
root -0.02818927784259226 17.59871515361689 7.140966741606807 2.994368525046272 -4.975889926881251 -0.7940429749632232
lfemur 3.5619304070613484 0.8356882958917731 -20.863070773691554
ltibia 74.88845203617153
lfoot 14.376161956746103 -11.546830934026815
ltoes -3.985023592494181
rfemur -37.33316191595838 1.2898517405760743 29.550039411660407
rtibia 46.23012989300739
rfoot -4.01817115210333 -2.330621471314796
rtoes 7.318635811317138
lowerback 16.40077940451341 -0.5875355481085216 -0.9575251151025512
upperback -0.30323377020415443 -0.7696349573829333 2.476267889676067
thorax -9.735262999794683 -0.2265844878979112 3.8095312704877182
lowerneck -20.759624689819493 -2.371551013660078 -2.1579523933983467
upperneck 13.31100593549716 -2.8765664485440006 1.7618082517100164
head 7.52069936696436 -1.3139251525758062 0.49782864585068387
lclavicle -1.7739773477980083e-15 1.7511855915099298e-15
lhumerus -39.80736832843512 -19.048077422587177 97.40016498266462
lradius 102.08814994388882
lwrist 33.180509729084484
lhand -25.79837563842845 0.07909124275542845
lfingers 7.12502
lthumb 0.7405560704666481 30.050504703531395
rclavicle -1.7739773477980083e-15 1.7511855915099298e-15
rhumerus -58.93781367100288 1.658884609515316 -94.9366437083402
rradius 107.58966771534998
rwrist -7.667104914605773
rhand -17.155971343054638 40.35650075509913
rfingers 7.12502
rthumb 9.083856517779063 10.186423411359536
